ModelForces
version=1
nRows=76
nColumns=3
inDegrees=no

This file contains the forces exerted on a model during a simulation.

A force is a generalized force, meaning that it can be either a force (N) or a torque (Nm).

Units are S.I. units (second, meters, Newtons, ...)
Angles are in degrees.

endheader
time	piston	spring
      0.00000000	    400.00000000	     47.46904247
      0.01000000	    400.00000000	     44.96006892
      0.06000000	    400.00000000	    -37.68482316
      0.12709023	    400.00000000	   -260.17281322
      0.16866160	    400.00000000	   -386.43849329
      0.21272498	    400.00000000	   -452.66792577
      0.24705866	    400.00000000	   -439.58914538
      0.28139234	    400.00000000	   -372.05820726
      0.31572602	    400.00000000	   -265.63664853
      0.36966388	    400.00000000	    -80.34106248
      0.42360173	    400.00000000	     36.58560118
      0.47753958	    400.00000000	     20.32869074
      0.53147744	    400.00000000	   -120.11689143
      0.59633822	    400.00000000	   -340.87782286
      0.64499972	    400.00000000	   -443.20589478
      0.68782554	    400.00000000	   -443.67848934
      0.72254790	    400.00000000	   -380.46865487
      0.75727026	    400.00000000	   -275.51475958
      0.81088464	    400.00000000	    -90.44506774
      0.86449901	    400.00000000	     32.56968607
      0.91811338	    400.00000000	     26.11549431
      0.97172776	    400.00000000	   -106.28441602
      1.05328331	    400.00000000	   -375.45091666
      1.09917661	    400.00000000	   -451.01621289
      1.13408885	    400.00000000	   -441.47199966
      1.16900109	    400.00000000	   -375.21859198
      1.20391333	    400.00000000	   -268.02492805
      1.25778130	    400.00000000	    -82.95773571
      1.31164926	    400.00000000	     35.35559449
      1.36551722	    400.00000000	     21.49312924
      1.41938518	    400.00000000	   -116.89574029
      1.48711601	    400.00000000	   -346.17660124
      1.52938349	    400.00000000	   -437.61554478
      1.57165098	    400.00000000	   -448.05433968
      1.60627055	    400.00000000	   -392.78958223
      1.64089012	    400.00000000	   -293.13298204
      1.69414924	    400.00000000	   -108.74776284
      1.74740836	    400.00000000	     24.26702284
      1.80066748	    400.00000000	     33.93180525
      1.85392660	    400.00000000	    -84.99277612
      1.92719704	    400.00000000	   -333.17975619
      1.97086911	    400.00000000	   -433.53792369
      2.01454118	    400.00000000	   -449.09183207
      2.04741170	    400.00000000	   -400.12079791
      2.08028222	    400.00000000	   -309.49950218
      2.13409347	    400.00000000	   -123.67457904
      2.18790472	    400.00000000	     18.00599194
      2.24171597	    400.00000000	     37.34874952
      2.29552722	    400.00000000	    -76.32904173
      2.36613525	    400.00000000	   -316.11390889
      2.40973783	    400.00000000	   -424.89093332
      2.45334041	    400.00000000	   -452.27561849
      2.48522886	    400.00000000	   -413.68820084
      2.51711730	    400.00000000	   -333.15431832
      2.56222170	    400.00000000	   -180.03080214
      2.61803850	    400.00000000	    -10.03512674
      2.67385531	    400.00000000	     45.42004714
      2.72967212	    400.00000000	    -46.47558264
      2.78548892	    400.00000000	   -231.39628819
      2.83348922	    400.00000000	   -381.57883995
      2.87889482	    400.00000000	   -451.79028294
      2.91313512	    400.00000000	   -439.59989057
      2.94737542	    400.00000000	   -373.24532109
      2.98161571	    400.00000000	   -267.93501210
      3.03550140	    400.00000000	    -83.05741861
      3.08938708	    400.00000000	     35.07977679
      3.14327277	    400.00000000	     21.11106613
      3.19715845	    400.00000000	   -117.25062251
      3.26462316	    400.00000000	   -345.42531504
      3.30694220	    400.00000000	   -437.12721494
      3.34926125	    400.00000000	   -447.80628596
      3.38387275	    400.00000000	   -392.77101508
      3.41848426	    400.00000000	   -293.36873718
      3.47177311	    400.00000000	   -109.12504134
      3.52506196	    400.00000000	     23.89819606
      3.57835081	    400.00000000	     33.64013320
